<?xml version="1.0" standalone="yes"?>

<svg version="1.1" viewBox="0.0 0.0 1518.2178477690288 1267.246719160105" fill="none" stroke="none" stroke-linecap="square" stroke-miterlimit="10" xmlns="http://www.w3.org/2000/svg" xmlns:xlink="http://www.w3.org/1999/xlink"><clipPath id="p.0"><path d="m0 0l1518.2179 0l0 1267.2467l-1518.2179 0l0 -1267.2467z" clip-rule="nonzero"></path></clipPath><g clip-path="url(#p.0)"><path fill="#000000" fill-opacity="0.0" d="m0 0l1518.2179 0l0 1267.2467l-1518.2179 0z" fill-rule="nonzero"></path><path fill="#800000" d="m400.19553 381.74933l717.8268 0l0 113.95276l-717.8268 0z" fill-rule="nonzero"></path><path stroke="#800000" stroke-width="2.0" stroke-linejoin="round" stroke-linecap="butt" d="m400.19553 381.74933l717.8268 0l0 113.95276l-717.8268 0z" fill-rule="nonzero"></path><path fill="#800000" d="m400.1942 576.6457l717.8268 0l0 113.95276l-717.8268 0z" fill-rule="nonzero"></path><path stroke="#800000" stroke-width="2.0" stroke-linejoin="round" stroke-linecap="butt" d="m400.1942 576.6457l717.8268 0l0 113.95276l-717.8268 0z" fill-rule="nonzero"></path><path fill="#800000" d="m400.1942 771.5446l717.8268 0l0 113.95276l-717.8268 0z" fill-rule="nonzero"></path><path stroke="#800000" stroke-width="2.0" stroke-linejoin="round" stroke-linecap="butt" d="m400.1942 771.5446l717.8268 0l0 113.95276l-717.8268 0z" fill-rule="nonzero"></path></g></svg>

